<svg xmlns="http://www.w3.org/2000/svg" xmlns:xlink="http://www.w3.org/1999/xlink" version="1.1" data-diagram-type="SEQUENCE" style="width:537px;height:678px;background:#FFFFFF;" width="537px" height="678px" viewBox="0 0 537 678" zoomAndPan="magnify" preserveAspectRatio="none" contentStyleType="text/css"><?plantuml 1.2026.7?><defs/><g font-family="sans-serif" lengthAdjust="spacing"><g class="title" data-source-line="1"><text x="171.886" y="27.995" fill="#000" font-size="14" textLength="191.762" font-weight="700">Plugin instance lifecycle</text></g><g><title>Application</title><rect x="48.612" y="123.594" width="8" height="467.992" fill="#000" fill-opacity="0"/><line x1="52.112" y1="123.594" x2="52.112" y2="591.586" style="stroke:#181818;stroke-width:0.5;stroke-dasharray:5,5;"/></g><g><title>PluginManager</title><rect x="251.622" y="123.594" width="8" height="467.992" fill="#000" fill-opacity="0"/><line x1="255.122" y1="123.594" x2="255.122" y2="591.586" style="stroke:#181818;stroke-width:0.5;stroke-dasharray:5,5;"/></g><g><title>Plugin</title><rect x="494.607" y="123.594" width="8" height="467.992" fill="#000" fill-opacity="0"/><line x1="498.107" y1="123.594" x2="498.107" y2="591.586" style="stroke:#181818;stroke-width:0.5;stroke-dasharray:5,5;"/></g><text x="10" y="120.292" fill="#000" font-size="14" textLength="78.224">Application</text><ellipse cx="52.112" cy="55.797" rx="8" ry="8" fill="#E2E2F0" style="stroke:#181818;stroke-width:0.5;"/><path d="M52.112,63.797 L52.112,90.797 M39.112,71.797 L65.112,71.797 M52.112,90.797 L39.112,105.797 M52.112,90.797 L65.112,105.797" style="stroke:#181818;stroke-width:0.5;" fill="none"/><rect x="196.012" y="92.297" width="118.221" height="30.297" fill="#E2E2F0" style="stroke:#181818;stroke-width:0.5;" rx="2.5" ry="2.5"/><text x="203.012" y="112.292" fill="#000" font-size="14" textLength="104.221">PluginManager</text><rect x="469.68" y="92.297" width="56.854" height="30.297" fill="#E2E2F0" style="stroke:#181818;stroke-width:0.5;" rx="2.5" ry="2.5"/><text x="476.68" y="112.292" fill="#000" font-size="14" textLength="42.854">Plugin</text><text x="10" y="604.581" fill="#000" font-size="14" textLength="78.224">Application</text><ellipse cx="52.112" cy="616.383" rx="8" ry="8" fill="#E2E2F0" style="stroke:#181818;stroke-width:0.5;"/><path d="M52.112,624.383 L52.112,651.383 M39.112,632.383 L65.112,632.383 M52.112,651.383 L39.112,666.383 M52.112,651.383 L65.112,666.383" style="stroke:#181818;stroke-width:0.5;" fill="none"/><rect x="196.012" y="591.586" width="118.221" height="30.297" fill="#E2E2F0" style="stroke:#181818;stroke-width:0.5;" rx="2.5" ry="2.5"/><text x="203.012" y="611.581" fill="#000" font-size="14" textLength="104.221">PluginManager</text><rect x="469.68" y="591.586" width="56.854" height="30.297" fill="#E2E2F0" style="stroke:#181818;stroke-width:0.5;" rx="2.5" ry="2.5"/><text x="476.68" y="611.581" fill="#000" font-size="14" textLength="42.854">Plugin</text><polygon points="243.122,148.727,253.122,152.727,243.122,156.727,247.122,152.727" fill="#181818" style="stroke:#181818;stroke-width:1;stroke-linejoin:miter;stroke-miterlimit:10;"/><line x1="52.112" y1="152.727" x2="249.122" y2="152.727" style="stroke:#181818;stroke-width:1;"/><text x="59.112" y="147.661" fill="#000" font-size="13" textLength="171.45">create_instance(plugin ID)</text><line x1="255.122" y1="181.859" x2="297.122" y2="181.859" style="stroke:#181818;stroke-width:1;"/><line x1="297.122" y1="181.859" x2="297.122" y2="194.859" style="stroke:#181818;stroke-width:1;"/><line x1="256.122" y1="194.859" x2="297.122" y2="194.859" style="stroke:#181818;stroke-width:1;"/><polygon points="266.122,190.859,256.122,194.859,266.122,198.859,262.122,194.859" fill="#181818" style="stroke:#181818;stroke-width:1;stroke-linejoin:miter;stroke-miterlimit:10;"/><text x="262.122" y="176.793" fill="#000" font-size="13" textLength="228.985">build retained filtered service table</text><polygon points="486.107,219.992,496.107,223.992,486.107,227.992,490.107,223.992" fill="#181818" style="stroke:#181818;stroke-width:1;stroke-linejoin:miter;stroke-miterlimit:10;"/><line x1="255.122" y1="223.992" x2="492.107" y2="223.992" style="stroke:#181818;stroke-width:1;"/><text x="262.122" y="218.926" fill="#000" font-size="13" textLength="174.941">descriptor.create(services)</text><polygon points="266.122,249.125,256.122,253.125,266.122,257.125,262.122,253.125" fill="#181818" style="stroke:#181818;stroke-width:1;stroke-linejoin:miter;stroke-miterlimit:10;"/><line x1="260.122" y1="253.125" x2="497.107" y2="253.125" style="stroke:#181818;stroke-width:1;stroke-dasharray:2,2;"/><text x="272.122" y="248.059" fill="#000" font-size="13" textLength="55.072">instance</text><polygon points="63.112,278.258,53.112,282.258,63.112,286.258,59.112,282.258" fill="#181818" style="stroke:#181818;stroke-width:1;stroke-linejoin:miter;stroke-miterlimit:10;"/><line x1="57.112" y1="282.258" x2="254.122" y2="282.258" style="stroke:#181818;stroke-width:1;stroke-dasharray:2,2;"/><text x="69.112" y="277.192" fill="#000" font-size="13" textLength="44.313">PM_OK</text><polygon points="243.122,307.391,253.122,311.391,243.122,315.391,247.122,311.391" fill="#181818" style="stroke:#181818;stroke-width:1;stroke-linejoin:miter;stroke-miterlimit:10;"/><line x1="52.112" y1="311.391" x2="249.122" y2="311.391" style="stroke:#181818;stroke-width:1;"/><text x="59.112" y="306.325" fill="#000" font-size="13" textLength="151.246">get_instance(plugin ID)</text><polygon points="63.112,336.523,53.112,340.523,63.112,344.523,59.112,340.523" fill="#181818" style="stroke:#181818;stroke-width:1;stroke-linejoin:miter;stroke-miterlimit:10;"/><line x1="57.112" y1="340.523" x2="254.122" y2="340.523" style="stroke:#181818;stroke-width:1;stroke-dasharray:2,2;"/><text x="69.112" y="335.458" fill="#000" font-size="13" textLength="107.866">opaque instance</text><polygon points="486.107,365.656,496.107,369.656,486.107,373.656,490.107,369.656" fill="#181818" style="stroke:#181818;stroke-width:1;stroke-linejoin:miter;stroke-miterlimit:10;"/><line x1="52.112" y1="369.656" x2="492.107" y2="369.656" style="stroke:#181818;stroke-width:1;"/><text x="59.112" y="364.59" fill="#000" font-size="13" textLength="194.499">application-typed method call</text><polygon points="63.112,394.789,53.112,398.789,63.112,402.789,59.112,398.789" fill="#181818" style="stroke:#181818;stroke-width:1;stroke-linejoin:miter;stroke-miterlimit:10;"/><line x1="57.112" y1="398.789" x2="497.107" y2="398.789" style="stroke:#181818;stroke-width:1;stroke-dasharray:2,2;"/><text x="69.112" y="393.723" fill="#000" font-size="13" textLength="78.489">typed result</text><polygon points="243.122,423.922,253.122,427.922,243.122,431.922,247.122,427.922" fill="#181818" style="stroke:#181818;stroke-width:1;stroke-linejoin:miter;stroke-miterlimit:10;"/><line x1="52.112" y1="427.922" x2="249.122" y2="427.922" style="stroke:#181818;stroke-width:1;"/><text x="59.112" y="422.856" fill="#000" font-size="13" textLength="179.01">destroy_instance(plugin ID)</text><polygon points="486.107,453.055,496.107,457.055,486.107,461.055,490.107,457.055" fill="#181818" style="stroke:#181818;stroke-width:1;stroke-linejoin:miter;stroke-miterlimit:10;"/><line x1="255.122" y1="457.055" x2="492.107" y2="457.055" style="stroke:#181818;stroke-width:1;"/><text x="262.122" y="451.989" fill="#000" font-size="13" textLength="184.234">descriptor.destroy(instance)</text><polygon points="266.122,482.188,256.122,486.188,266.122,490.188,262.122,486.188" fill="#181818" style="stroke:#181818;stroke-width:1;stroke-linejoin:miter;stroke-miterlimit:10;"/><line x1="260.122" y1="486.188" x2="497.107" y2="486.188" style="stroke:#181818;stroke-width:1;stroke-dasharray:2,2;"/><text x="272.122" y="481.122" fill="#000" font-size="13" textLength="39.946">status</text><polygon points="63.112,511.32,53.112,515.32,63.112,519.32,59.112,515.32" fill="#181818" style="stroke:#181818;stroke-width:1;stroke-linejoin:miter;stroke-miterlimit:10;"/><line x1="57.112" y1="515.32" x2="254.122" y2="515.32" style="stroke:#181818;stroke-width:1;stroke-dasharray:2,2;"/><text x="69.112" y="510.254" fill="#000" font-size="13" textLength="39.946">status</text><polygon points="243.122,540.453,253.122,544.453,243.122,548.453,247.122,544.453" fill="#181818" style="stroke:#181818;stroke-width:1;stroke-linejoin:miter;stroke-miterlimit:10;"/><line x1="52.112" y1="544.453" x2="249.122" y2="544.453" style="stroke:#181818;stroke-width:1;"/><text x="59.112" y="539.387" fill="#000" font-size="13" textLength="112.588">unload(plugin ID)</text><polygon points="63.112,569.586,53.112,573.586,63.112,577.586,59.112,573.586" fill="#181818" style="stroke:#181818;stroke-width:1;stroke-linejoin:miter;stroke-miterlimit:10;"/><line x1="57.112" y1="573.586" x2="254.122" y2="573.586" style="stroke:#181818;stroke-width:1;stroke-dasharray:2,2;"/><text x="69.112" y="568.52" fill="#000" font-size="13" textLength="39.946">status</text><?plantuml-src VL3DQiCm3BxdANHC3za3v50ex396MT-Wg8wQ2LpRi-L1tdvg7AyDQtSJqlUdJrWimS7caHsmIuBE45W-avcCfGQD-0Yx42mR5FOEC066q0ICmeO3EbdeUtGuKhm2mkN1VJxCKzEe0dHRnK4F9X8A7QjvMp3mzhffz5vHfynsW4Y2x6Y0CrkXg4EY-CqQMV2aSHT2KUXXe6GY1ttXfRYq2pofTW5rrQ3wpngwl4RiuR0_VholueuaJxF-qdp0hqmtpIfGW-6jq4wce7zSI3xz00QjlOzMv0eaKifMLc7qGOb--g-y1rqihBQo_fQXUybf_TEokxVFpdeSdhPG63y0?></g></svg>